<?xml version="1.0" encoding="UTF-8"?>
<svg xmlns="http://www.w3.org/2000/svg" xmlns:xlink="http://www.w3.org/1999/xlink" width="250px" height="250px" viewBox="0 0 250 250" version="1.1">
<g id="surface1">
<path style=" stroke:none;fill-rule:nonzero;fill:rgb(100%,42.352941%,21.568627%);fill-opacity:1;" d="M 216.960938 63.574219 C 183.910156 20.773438 122.421875 12.875 79.625 45.929688 C 36.828125 78.984375 28.9375 140.476562 61.996094 183.269531 C 95.054688 226.058594 156.546875 233.945312 199.335938 200.882812 C 242.105469 167.828125 250 106.359375 216.957031 63.574219 Z M 216.960938 63.574219 "/>
<path style=" stroke:none;fill-rule:nonzero;fill:rgb(100%,100%,100%);fill-opacity:1;" d="M 172.492188 87.890625 L 131.210938 129.5 L 119.546875 117.507812 C 160.175781 76.875 164.253906 80.546875 172.496094 87.890625 Z M 172.492188 87.890625 "/>
<path style=" stroke:none;fill-rule:nonzero;fill:rgb(100%,42.352941%,21.568627%);fill-opacity:1;" d="M 131.210938 130.636719 C 130.847656 130.628906 130.496094 130.484375 130.234375 130.230469 L 118.484375 118.480469 C 117.933594 117.914062 117.933594 117.011719 118.484375 116.441406 C 158.542969 76.382812 164.007812 78.257812 173.472656 86.824219 C 173.792969 87.082031 173.976562 87.476562 173.960938 87.886719 C 174.023438 88.285156 173.871094 88.691406 173.554688 88.949219 L 132.273438 130.234375 C 131.984375 130.5 131.605469 130.644531 131.210938 130.640625 Z M 121.582031 117.503906 L 131.210938 127.132812 L 170.375 87.96875 C 167.574219 84.460938 162.585938 83.617188 158.789062 86.011719 C 151.6875 89.195312 140.269531 98.902344 121.582031 117.503906 Z M 121.582031 117.503906 "/>
<path style=" stroke:none;fill-rule:nonzero;fill:rgb(100%,100%,100%);fill-opacity:1;" d="M 143.042969 141.003906 L 131.785156 129.5 L 173.066406 88.703125 C 184.164062 99.554688 167.679688 117.667969 143.042969 141 Z M 143.042969 141.003906 "/>
<path style=" stroke:none;fill-rule:nonzero;fill:rgb(100%,42.352941%,21.568627%);fill-opacity:1;" d="M 143.042969 142.472656 C 142.683594 142.441406 142.339844 142.300781 142.0625 142.066406 L 130.558594 130.804688 C 130.386719 130.386719 130.386719 129.917969 130.558594 129.5 C 130.4375 129.15625 130.4375 128.78125 130.558594 128.4375 L 171.84375 87.15625 C 172.4375 86.597656 173.367188 86.597656 173.960938 87.15625 C 176.667969 89.644531 178.15625 93.1875 178.039062 96.863281 C 178.039062 107.878906 165.476562 121.746094 144.101562 141.980469 C 143.816406 142.265625 143.441406 142.4375 143.039062 142.472656 Z M 133.902344 129.5 L 143.121094 138.714844 C 159.4375 123.292969 175.023438 107.386719 175.101562 96.617188 C 175.191406 94.332031 174.4375 92.097656 172.984375 90.335938 Z M 133.902344 129.5 "/>
<path style=" stroke:none;fill-rule:nonzero;fill:rgb(100%,100%,100%);fill-opacity:1;" d="M 119.871094 117.75 L 128.03125 125.910156 C 128.136719 126.003906 128.195312 126.136719 128.195312 126.277344 C 128.195312 126.417969 128.136719 126.550781 128.03125 126.644531 L 110.8125 130.316406 C 110.101562 130.46875 109.371094 130.132812 109.027344 129.484375 C 108.6875 128.839844 108.816406 128.046875 109.34375 127.542969 L 119.378906 117.589844 C 119.378906 117.589844 119.707031 117.589844 119.871094 117.75 Z M 119.871094 117.75 "/>
<path style=" stroke:none;fill-rule:nonzero;fill:rgb(100%,42.352941%,21.568627%);fill-opacity:1;" d="M 110.40625 131.945312 C 109.300781 131.933594 108.28125 131.347656 107.714844 130.394531 C 107.070312 129.179688 107.304688 127.6875 108.285156 126.722656 L 118.238281 116.6875 C 118.984375 116.023438 120.105469 116.023438 120.847656 116.6875 L 129.007812 124.847656 C 129.492188 125.308594 129.683594 126.003906 129.5 126.644531 C 129.316406 127.289062 128.777344 127.796875 128.113281 127.953125 L 110.898438 131.621094 Z M 119.546875 119.546875 L 110.328125 128.765625 L 125.585938 125.5 Z M 120.28125 118.8125 Z M 120.28125 118.8125 "/>
<path style=" stroke:none;fill-rule:nonzero;fill:rgb(100%,100%,100%);fill-opacity:1;" d="M 194.441406 64.960938 C 188.539062 59.265625 179.261719 59.027344 173.070312 64.402344 C 166.875 69.777344 165.816406 79.003906 170.640625 85.644531 C 175.460938 92.285156 184.550781 94.144531 191.589844 89.929688 L 180.492188 78.832031 Z M 194.441406 64.960938 "/>
<path style=" stroke:none;fill-rule:nonzero;fill:rgb(100%,42.352941%,21.568627%);fill-opacity:1;" d="M 183.429688 93.679688 C 176.492188 93.589844 170.28125 89.363281 167.652344 82.945312 C 165.027344 76.535156 166.46875 69.171875 171.324219 64.226562 C 178.121094 57.558594 189.003906 57.558594 195.800781 64.226562 C 196.113281 64.492188 196.289062 64.878906 196.289062 65.289062 C 196.289062 65.699219 196.109375 66.085938 195.800781 66.351562 L 182.582031 78.835938 L 192.617188 88.707031 C 192.949219 89.023438 193.101562 89.480469 193.027344 89.929688 C 192.976562 90.363281 192.738281 90.753906 192.375 90.992188 C 189.679688 92.679688 186.578125 93.609375 183.402344 93.683594 Z M 183.429688 62.023438 C 177.617188 62.054688 172.414062 65.550781 170.234375 70.894531 C 168.050781 76.238281 169.238281 82.390625 173.3125 86.5 C 177.460938 90.671875 183.746094 91.871094 189.140625 89.519531 L 179.511719 79.890625 C 179.203125 79.640625 179.023438 79.265625 179.023438 78.871094 C 179.023438 78.472656 179.203125 78.097656 179.511719 77.847656 L 192.238281 65.039062 C 189.710938 63.101562 186.617188 62.039062 183.429688 62.019531 Z M 183.429688 62.023438 "/>
<path style=" stroke:none;fill-rule:nonzero;fill:rgb(100%,100%,100%);fill-opacity:1;" d="M 194.6875 65.207031 L 180.734375 79.074219 L 191.832031 90.171875 C 192.949219 89.53125 193.988281 88.765625 194.933594 87.886719 C 200.976562 81.496094 200.871094 71.464844 194.6875 65.207031 Z M 194.6875 65.207031 "/>
<path style=" stroke:none;fill-rule:nonzero;fill:rgb(100%,42.352941%,21.568627%);fill-opacity:1;" d="M 191.585938 91.398438 C 191.214844 91.417969 190.855469 91.265625 190.605469 90.988281 L 179.507812 79.894531 C 179.199219 79.644531 179.019531 79.269531 179.019531 78.871094 C 179.019531 78.476562 179.199219 78.101562 179.507812 77.851562 L 193.378906 64.226562 C 193.648438 63.816406 194.109375 63.570312 194.601562 63.570312 C 195.09375 63.570312 195.554688 63.816406 195.824219 64.226562 C 199.113281 67.449219 200.96875 71.863281 200.96875 76.464844 C 200.96875 81.070312 199.113281 85.480469 195.824219 88.703125 C 194.863281 89.722656 193.765625 90.601562 192.5625 91.3125 C 192.257812 91.46875 191.90625 91.496094 191.582031 91.398438 Z M 182.613281 78.835938 L 191.828125 88.050781 C 192.464844 87.609375 193.0625 87.117188 193.625 86.582031 C 196.335938 83.882812 197.863281 80.214844 197.871094 76.386719 C 197.875 72.960938 196.628906 69.652344 194.359375 67.085938 Z M 182.613281 78.835938 "/>
<path style=" stroke:none;fill-rule:nonzero;fill:rgb(100%,100%,100%);fill-opacity:1;" d="M 174.207031 89.605469 C 171.914062 87.449219 168.339844 87.449219 166.046875 89.605469 L 129.089844 126.476562 L 135.210938 132.679688 L 174.289062 98.410156 C 175.496094 97.257812 176.167969 95.65625 176.152344 93.988281 C 176.136719 92.320312 175.433594 90.730469 174.207031 89.601562 Z M 174.207031 89.605469 "/>
<path style=" stroke:none;fill-rule:nonzero;fill:rgb(100%,42.352941%,21.568627%);fill-opacity:1;" d="M 134.882812 134.148438 C 134.519531 134.140625 134.167969 133.996094 133.902344 133.742188 L 127.703125 127.542969 C 127.152344 126.972656 127.152344 126.070312 127.703125 125.5 L 164.660156 88.703125 C 166.839844 86.527344 170.125 85.902344 172.949219 87.125 C 175.777344 88.351562 177.566406 91.175781 177.472656 94.25 C 177.386719 96.3125 176.472656 98.253906 174.941406 99.636719 L 135.863281 133.902344 C 135.578125 134.101562 135.230469 134.191406 134.882812 134.148438 Z M 130.558594 126.476562 L 134.636719 130.636719 L 172.984375 97.269531 C 173.933594 96.441406 174.496094 95.261719 174.535156 94.003906 C 174.570312 92.746094 174.074219 91.515625 173.148438 90.660156 C 171.367188 88.882812 168.484375 88.882812 166.703125 90.660156 Z M 130.558594 126.476562 "/>
<path style=" stroke:none;fill-rule:nonzero;fill:rgb(100%,100%,100%);fill-opacity:1;" d="M 100.453125 168.496094 C 100.242188 168.785156 100.242188 169.183594 100.453125 169.476562 L 102.085938 176.574219 C 102.21875 177.429688 101.816406 178.277344 101.070312 178.714844 C 100.324219 179.152344 99.382812 179.054688 98.738281 178.480469 L 87.5625 167.710938 L 122.402344 132.597656 L 134.476562 132.597656 L 142.636719 140.753906 C 129.90625 151.882812 115.714844 161.21875 100.453125 168.496094 Z M 100.453125 168.496094 "/>
<path style=" stroke:none;fill-rule:nonzero;fill:rgb(100%,42.352941%,21.568627%);fill-opacity:1;" d="M 99.71875 180.488281 C 98.796875 180.472656 97.886719 180.089844 97.273438 179.425781 L 86.585938 168.742188 C 86.277344 168.492188 86.09375 168.117188 86.09375 167.71875 C 86.09375 167.324219 86.277344 166.949219 86.585938 166.699219 L 121.667969 131.539062 C 121.863281 131.328125 122.121094 131.1875 122.402344 131.128906 L 134.554688 131.128906 C 134.871094 131.019531 135.21875 131.019531 135.535156 131.128906 L 143.695312 139.289062 C 144.007812 139.582031 144.160156 140.007812 144.101562 140.429688 C 144.113281 140.84375 143.933594 141.234375 143.613281 141.492188 L 142.960938 142.066406 C 130.179688 152.71875 116.121094 161.734375 101.105469 168.90625 L 102.65625 175.515625 C 102.902344 176.546875 102.664062 177.632812 102.015625 178.472656 C 101.367188 179.3125 100.375 179.8125 99.3125 179.835938 Z M 89.769531 167.679688 L 99.394531 177.386719 C 99.578125 177.550781 99.859375 177.550781 100.042969 177.386719 C 100.167969 177.214844 100.167969 176.984375 100.042969 176.816406 L 98.414062 169.714844 C 98.148438 168.667969 98.660156 167.574219 99.636719 167.105469 C 114.25 160.03125 127.945312 151.210938 140.429688 140.835938 L 133.738281 134.144531 L 122.808594 134.144531 Z M 101.515625 169.148438 Z M 101.515625 169.148438 "/>
<path style=" stroke:none;fill-rule:nonzero;fill:rgb(100%,100%,100%);fill-opacity:1;" d="M 79.160156 176.082031 L 87.320312 167.921875 L 99.886719 180.488281 L 79.898438 179.101562 C 79.195312 179.046875 78.605469 178.546875 78.4375 177.859375 C 78.269531 177.175781 78.5625 176.460938 79.164062 176.085938 Z M 79.160156 176.082031 "/>
<path style=" stroke:none;fill-rule:nonzero;fill:rgb(100%,42.352941%,21.568627%);fill-opacity:1;" d="M 100.128906 181.714844 L 80.21875 180.328125 C 79.039062 180.21875 78.023438 179.410156 77.605469 178.328125 C 77.191406 177.25 77.445312 175.96875 78.261719 175.105469 L 86.421875 166.945312 C 86.988281 166.394531 87.890625 166.394531 88.460938 166.945312 L 100.945312 179.425781 C 101.300781 179.914062 101.300781 180.574219 100.945312 181.058594 C 100.753906 181.363281 100.46875 181.59375 100.128906 181.710938 Z M 80.21875 177.144531 L 96.535156 178.207031 L 87.5625 169.800781 Z M 80.21875 177.144531 "/>
<path style=" stroke:none;fill-rule:nonzero;fill:rgb(100%,100%,100%);fill-opacity:1;" d="M 135.617188 133.582031 L 119.136719 136.109375 L 128.683594 126.648438 Z M 135.617188 133.582031 "/>
<path style=" stroke:none;fill-rule:nonzero;fill:rgb(100%,42.352941%,21.568627%);fill-opacity:1;" d="M 119.136719 137.65625 C 118.574219 137.671875 118.0625 137.347656 117.828125 136.839844 C 117.472656 136.355469 117.472656 135.695312 117.828125 135.207031 L 127.292969 125.664062 C 127.886719 125.101562 128.816406 125.101562 129.414062 125.664062 L 136.351562 132.597656 C 136.632812 133.042969 136.632812 133.617188 136.351562 134.0625 C 136.214844 134.613281 135.765625 135.027344 135.210938 135.125 L 118.894531 137.65625 Z M 128.683594 128.761719 L 123.378906 134.0625 L 132.519531 132.679688 Z M 128.683594 128.761719 "/>
<path style=" stroke:none;fill-rule:nonzero;fill:rgb(100%,100%,100%);fill-opacity:1;" d="M 135.617188 133.574219 L 124.113281 135.042969 C 123.480469 135.1875 122.832031 134.898438 122.511719 134.335938 C 122.191406 133.769531 122.28125 133.0625 122.726562 132.597656 L 128.683594 126.640625 Z M 135.617188 133.574219 "/>
<path style=" stroke:none;fill-rule:nonzero;fill:rgb(100%,42.352941%,21.568627%);fill-opacity:1;" d="M 123.785156 136.597656 C 122.699219 136.585938 121.703125 135.996094 121.175781 135.046875 C 120.535156 133.898438 120.738281 132.464844 121.667969 131.539062 L 127.625 125.582031 C 128.21875 125.019531 129.148438 125.019531 129.742188 125.582031 L 136.679688 132.515625 C 137.101562 132.914062 137.246094 133.527344 137.054688 134.074219 C 136.859375 134.621094 136.363281 135 135.78125 135.046875 L 124.363281 136.515625 Z M 123.785156 133.578125 L 132.4375 132.515625 L 128.601562 128.683594 L 123.707031 133.578125 Z M 194.765625 74.589844 C 194.449219 74.058594 193.78125 73.847656 193.214844 74.101562 C 192.941406 74.238281 192.738281 74.480469 192.648438 74.773438 C 192.554688 75.066406 192.585938 75.382812 192.726562 75.652344 C 193.296875 76.855469 193.140625 78.277344 192.320312 79.324219 C 192.113281 79.527344 192.003906 79.808594 192.011719 80.097656 C 192.015625 80.382812 192.125 80.660156 192.320312 80.871094 C 192.527344 80.953125 192.761719 80.953125 192.972656 80.871094 C 193.359375 80.96875 193.765625 80.84375 194.03125 80.542969 C 195.402344 78.867188 195.6875 76.550781 194.765625 74.585938 Z M 194.765625 74.589844 "/>
</g>
</svg>
