<?xml version="1.0" encoding="UTF-8"?>
<svg xmlns="http://www.w3.org/2000/svg" xmlns:xlink="http://www.w3.org/1999/xlink" width="250px" height="250px" viewBox="0 0 250 254" version="1.1">
<g id="surface1">
<path style=" stroke:none;fill-rule:nonzero;fill:rgb(100%,56.862745%,0%);fill-opacity:1;" d="M 108.003906 219.386719 C 92.492188 188 40.742188 83.570312 11.5 24.609375 C 5.164062 11.777344 0.015625 0.394531 0.015625 0 L 42.324219 0 C 70.179688 55.667969 97.96875 111.40625 125.824219 167.074219 C 155.925781 106.929688 183.515625 50.667969 208.53125 0 L 249.917969 0 C 205.363281 91.53125 174.738281 154.046875 133.152344 237.8125 L 125.097656 254 Z M 108.003906 219.386719 "/>
<path style=" stroke:none;fill-rule:nonzero;fill:rgb(41.568627%,40.784314%,39.607843%);fill-opacity:1;" d="M 68.925781 0.0664062 L 180.875 0.0664062 C 180.875 0.59375 125.5625 111.535156 125.296875 111.535156 C 106.882812 73.765625 84.636719 33.824219 68.925781 0.0664062 Z M 68.925781 0.0664062 "/>
</g>
</svg>
